<svg width="661" height="593" viewBox="0 0 661 593" fill="none" xmlns="http://www.w3.org/2000/svg">
<ellipse cx="330.5" cy="296.5" rx="330.5" ry="296.5" fill="#AC1616"/>
<g filter="url(#filter0_d_2_79)">
<ellipse cx="331.5" cy="299" rx="317.5" ry="283" fill="#BC27B6" fill-opacity="0.3" shape-rendering="crispEdges"/>
<path d="M648.5 299C648.5 454.968 506.63 581.5 331.5 581.5C156.37 581.5 14.5 454.968 14.5 299C14.5 143.032 156.37 16.5 331.5 16.5C506.63 16.5 648.5 143.032 648.5 299Z" stroke="#BC27B6" shape-rendering="crispEdges"/>
</g>
<ellipse cx="331" cy="295" rx="311" ry="279" fill="white"/>
<path d="M127 358C287.686 512.954 376.982 512.467 535 358" stroke="#AC1616" stroke-width="14"/>
<ellipse cx="213" cy="178" rx="30" ry="70" fill="#AC1616"/>
<ellipse cx="437" cy="178" rx="30" ry="70" fill="#AC1616"/>
<path d="M131 356C130.195 357.988 124.23 373.889 121.444 373.889C118.321 373.889 121.915 367.724 122.222 367.333C126.066 362.449 131.827 358.787 137.611 356.667C141.334 355.302 135.584 359.432 135 360C131.28 363.615 127.464 367.144 123.278 370.222C122.463 370.821 119.049 372.766 122 370.222C125.71 367.024 130.101 364.135 134.333 361.667C137.471 359.836 128.277 370.238 126.667 371.556C119.919 377.077 127.729 361.348 128.778 359.889C129.686 358.624 132.651 353.578 134.5 353.167C137.042 352.602 133.344 358.208 133.333 358.222C131.21 361.041 124.95 370.778 120.611 370.778C118.738 370.778 126.56 360.205 130.389 361.056C132.793 361.59 125.429 369.024 124.778 367.722C123.122 364.41 145.815 347.628 150 348.389C152.413 348.828 147.317 352.582 145.444 354.167C137.674 360.742 129.153 366.399 121.222 372.778C114.88 377.879 130.995 359.574 137.222 354.333C146.991 346.112 139.738 358.727 136.556 362.778C134.626 365.234 123.941 378.118 129 368" stroke="#BF1A1A" stroke-width="3" stroke-linecap="round"/>
<path d="M139 359C131.947 363.184 128.745 368.132 123.222 373.778C122.852 374.157 119.879 377.263 119.222 377C118.198 376.59 127.833 356.844 128.944 354.889C130.872 351.5 130.881 355.872 130.944 357.333C131.197 363.149 130.072 367.716 126.444 372.333C125.109 374.034 121.093 382.889 118.556 382.889C111.659 382.889 137.547 362.917 132.444 367.556C127.215 372.31 118.445 378.461 111.722 380.833C104.859 383.256 116.321 369.689 116.889 369.111C117.92 368.061 131.035 358.264 130.833 359.778C130.001 366.024 123.87 371.407 119.111 374.778C114.168 378.279 115.233 375.653 118.056 372.056C123.071 365.663 128.982 359.979 135.111 354.667C135.492 354.336 138.845 350.866 139.556 352.889C141.326 357.928 132.037 365.407 129.278 368C122.014 374.826 113.524 379.664 106 386C97.4656 393.187 120.747 369.113 129.389 362.056C134.156 358.162 139.293 357.411 133.667 364.444C130.006 369.02 117.208 378.633 127.611 367.056C131.836 362.354 136.841 356.353 142.444 353.222C146.512 350.949 142.417 359.413 142.111 359.889C141.63 360.636 132.329 372.2 134.444 366.778C134.681 366.173 135.879 363.444 136.778 363.444C139.923 363.444 132.794 368.361 130.389 370.389C128.103 372.316 124.995 374.889 121.778 374.889C119.841 374.889 125.47 362.779 126 361.889C127.077 360.081 131.556 356.784 131.556 358.889C131.556 362.86 127.499 365.657 124.778 367.833C122.707 369.49 123.087 368.886 124.389 366.5C127.513 360.772 132.014 356.155 136.889 351.889C143.584 346.031 135.983 362.336 135 363.889C130.967 370.257 126.006 376.295 135.111 366.667C136.075 365.648 150.987 349.435 145.5 358.944C141.325 366.181 146.201 352.293 147 350.667C147.335 349.985 150.031 343.444 151.278 343.444C151.759 343.444 144.687 351.571 144.222 352C143.984 352.22 138.981 357.559 138.222 356.333C137.438 355.067 138.339 353.049 137.944 351.667C137.756 351.007 136.395 352.609 136.111 352.722C135.155 353.105 140.304 345.867 141 345.222C142.283 344.033 144.97 341.102 147 341C150.707 340.815 143.05 347.357 140.444 350C137.74 352.742 130.23 361.335 132.056 357.944C135.334 351.857 144.898 347.173 150.556 343.778C159.573 338.367 157.32 344.576 151.722 348.722C149.94 350.042 147.144 350.784 149 348" stroke="#BF1A1A" stroke-width="3" stroke-linecap="round"/>
<path d="M543.367 358.134C541.414 357.247 525.776 350.623 525.893 347.84C526.023 344.72 532.032 348.567 532.41 348.891C537.13 352.935 540.548 358.844 542.425 364.712C543.633 368.488 539.747 362.571 539.204 361.964C535.747 358.096 532.38 354.136 529.48 349.825C528.915 348.986 527.115 345.494 529.533 348.548C532.574 352.389 535.276 356.896 537.566 361.228C539.264 364.439 529.255 354.819 528.006 353.155C522.772 346.182 538.16 354.643 539.574 355.751C540.8 356.712 545.719 359.885 546.052 361.749C546.51 364.312 541.064 360.384 541.049 360.373C538.321 358.133 528.855 351.472 529.036 347.137C529.114 345.266 539.351 353.523 538.342 357.312C537.707 359.693 530.587 352.024 531.915 351.428C535.293 349.912 551.113 373.286 550.178 377.435C549.639 379.828 546.1 374.579 544.596 372.642C538.351 364.604 533.055 355.854 527.012 347.664C522.18 341.115 539.796 357.98 544.773 364.42C552.579 374.524 540.277 366.751 536.363 363.402C533.99 361.371 521.563 350.158 531.461 355.635" stroke="#BF1A1A" stroke-width="3" stroke-linecap="round"/>
<path d="M543.036 369.002C539.15 361.781 534.34 358.375 528.93 352.621C528.566 352.235 525.587 349.135 525.877 348.49C526.329 347.484 545.656 357.934 547.563 359.127C550.869 361.194 546.5 361.02 545.037 361.023C539.216 361.033 534.7 359.718 530.238 355.901C528.595 354.495 519.915 350.113 520.021 347.578C520.309 340.688 539.183 367.387 534.761 362.095C530.23 356.671 524.45 347.652 522.36 340.836C520.227 333.878 533.303 345.896 533.857 346.488C534.862 347.562 544.104 361.075 542.6 360.81C536.394 359.717 531.271 353.367 528.102 348.472C524.81 343.386 527.39 344.561 530.866 347.531C537.043 352.809 542.476 358.952 547.528 365.297C547.842 365.692 551.169 369.186 549.118 369.812C544.009 371.371 536.925 361.778 534.449 358.912C527.933 351.37 523.454 342.686 517.437 334.903C510.613 326.076 533.694 350.343 540.384 359.272C544.075 364.197 544.611 369.361 537.819 363.446C533.4 359.597 524.33 346.409 535.463 357.287C539.984 361.704 545.77 366.955 548.665 372.685C550.766 376.843 542.48 372.399 542.018 372.073C541.291 371.562 530.126 361.785 535.455 364.126C536.05 364.387 538.725 365.698 538.688 366.596C538.557 369.739 533.942 362.41 532.016 359.923C530.186 357.559 527.745 354.346 527.88 351.131C527.961 349.196 539.825 355.326 540.692 355.893C542.454 357.044 545.56 361.656 543.458 361.569C539.49 361.403 536.865 357.233 534.804 354.423C533.235 352.285 533.823 352.69 536.152 354.09C541.745 357.451 546.17 362.141 550.229 367.19C555.802 374.123 539.828 365.848 538.318 364.801C532.124 360.506 526.299 355.297 535.538 364.796C536.516 365.802 552.092 381.377 542.82 375.499C535.764 371.025 549.436 376.477 551.028 377.343C551.695 377.706 558.117 380.673 558.065 381.918C558.045 382.399 550.221 374.994 549.812 374.512C549.602 374.264 544.476 369.043 545.733 368.336C547.031 367.606 549.01 368.59 550.407 368.253C551.074 368.093 549.53 366.666 549.429 366.378C549.087 365.407 556.103 370.853 556.718 371.575C557.853 372.907 560.669 375.714 560.686 377.746C560.716 381.458 554.499 373.535 551.968 370.821C549.341 368.005 541.069 360.142 544.38 362.108C550.326 365.637 554.607 375.388 557.762 381.183C562.791 390.418 556.683 387.908 552.773 382.142C551.529 380.307 550.905 377.482 553.609 379.452" stroke="#BF1A1A" stroke-width="3" stroke-linecap="round"/>
<g style="mix-blend-mode:darken" filter="url(#filter1_d_2_79)">
<path d="M127 358C287.686 512.954 376.982 512.467 535 358" stroke="#9A269C" stroke-opacity="0.88" stroke-width="14"/>
</g>
<g style="mix-blend-mode:darken" filter="url(#filter2_d_2_79)">
<ellipse cx="213" cy="178" rx="30" ry="70" fill="#9A269C" fill-opacity="0.88" shape-rendering="crispEdges"/>
</g>
<g style="mix-blend-mode:darken" filter="url(#filter3_d_2_79)">
<ellipse cx="437" cy="178" rx="30" ry="70" fill="#9A269C" fill-opacity="0.88" shape-rendering="crispEdges"/>
</g>
<g style="mix-blend-mode:darken" filter="url(#filter4_d_2_79)">
<path d="M139 359C131.947 363.184 128.745 368.132 123.222 373.778C122.852 374.157 119.879 377.263 119.222 377C118.198 376.59 127.833 356.844 128.944 354.889C130.872 351.5 130.881 355.872 130.944 357.333C131.197 363.149 130.072 367.716 126.444 372.333C125.109 374.034 121.093 382.889 118.556 382.889C111.659 382.889 137.547 362.917 132.444 367.556C127.215 372.31 118.445 378.461 111.722 380.833C104.859 383.256 116.321 369.689 116.889 369.111C117.92 368.061 131.035 358.264 130.833 359.778C130.001 366.024 123.87 371.407 119.111 374.778C114.168 378.279 115.233 375.653 118.056 372.056C123.071 365.663 128.982 359.979 135.111 354.667C135.492 354.336 138.845 350.866 139.556 352.889C141.326 357.928 132.037 365.407 129.278 368C122.014 374.826 113.524 379.664 106 386C97.4656 393.187 120.747 369.113 129.389 362.056C134.156 358.162 139.293 357.411 133.667 364.444C130.006 369.02 117.208 378.633 127.611 367.056C131.836 362.354 136.841 356.353 142.444 353.222C146.512 350.949 142.417 359.413 142.111 359.889C141.63 360.636 132.329 372.2 134.444 366.778C134.681 366.173 135.879 363.444 136.778 363.444C139.923 363.444 132.794 368.361 130.389 370.389C128.103 372.316 124.995 374.889 121.778 374.889C119.841 374.889 125.47 362.779 126 361.889C127.077 360.081 131.556 356.784 131.556 358.889C131.556 362.86 127.499 365.657 124.778 367.833C122.707 369.49 123.087 368.886 124.389 366.5C127.513 360.772 132.014 356.155 136.889 351.889C143.584 346.031 135.983 362.336 135 363.889C130.967 370.257 126.006 376.295 135.111 366.667C136.075 365.648 150.987 349.435 145.5 358.944C141.325 366.181 146.201 352.293 147 350.667C147.335 349.985 150.031 343.444 151.278 343.444C151.759 343.444 144.687 351.571 144.222 352C143.984 352.22 138.981 357.559 138.222 356.333C137.438 355.067 138.339 353.049 137.944 351.667C137.756 351.007 136.395 352.609 136.111 352.722C135.155 353.105 140.304 345.867 141 345.222C142.283 344.033 144.97 341.102 147 341C150.707 340.815 143.05 347.357 140.444 350C137.74 352.742 130.23 361.335 132.056 357.944C135.334 351.857 144.898 347.173 150.556 343.778C159.573 338.367 157.32 344.576 151.722 348.722C149.94 350.042 147.144 350.784 149 348" stroke="#9A269C" stroke-opacity="0.2" stroke-width="3" stroke-linecap="round" shape-rendering="crispEdges"/>
</g>
<g style="mix-blend-mode:darken" filter="url(#filter5_d_2_79)">
<path d="M542.136 367.167C538.295 359.922 533.506 356.486 528.131 350.699C527.771 350.311 524.811 347.192 525.105 346.549C525.563 345.546 544.825 356.116 546.725 357.32C550.017 359.407 545.65 359.207 544.187 359.2C538.366 359.174 533.858 357.831 529.42 353.987C527.786 352.571 519.133 348.136 519.254 345.601C519.585 338.713 538.294 365.528 533.905 360.209C529.407 354.757 523.683 345.703 521.635 338.874C519.544 331.903 532.546 344.002 533.096 344.597C534.095 345.676 543.253 359.246 541.751 358.972C535.552 357.841 530.469 351.46 527.33 346.545C524.069 341.439 526.641 342.629 530.099 345.621C536.244 350.937 541.639 357.113 546.651 363.49C546.963 363.887 550.269 367.401 548.214 368.014C543.095 369.542 536.07 359.905 533.613 357.024C527.142 349.442 522.717 340.73 516.748 332.911C509.979 324.042 532.91 348.45 539.545 357.42C543.205 362.369 543.709 367.536 536.954 361.579C532.558 357.703 523.57 344.459 534.636 355.405C539.13 359.85 544.883 365.137 547.743 370.884C549.818 375.056 541.56 370.56 541.1 370.232C540.376 369.716 529.271 359.87 534.586 362.244C535.179 362.509 537.847 363.836 537.804 364.734C537.653 367.876 533.083 360.519 531.173 358.02C529.358 355.645 526.937 352.416 527.091 349.203C527.184 347.269 539.01 353.471 539.874 354.043C541.628 355.206 544.706 359.837 542.604 359.736C538.638 359.546 536.038 355.36 533.995 352.538C532.439 350.389 533.024 350.799 535.345 352.213C540.917 355.608 545.313 360.325 549.341 365.399C554.871 372.366 538.948 363.994 537.445 362.937C531.277 358.603 525.484 353.359 534.665 362.915C535.636 363.926 551.117 379.598 541.881 373.662C534.853 369.145 548.491 374.681 550.077 375.557C550.742 375.924 557.146 378.931 557.086 380.176C557.063 380.656 549.285 373.203 548.878 372.718C548.67 372.47 543.576 367.217 544.837 366.518C546.14 365.795 548.113 366.792 549.512 366.464C550.18 366.307 548.645 364.871 548.545 364.582C548.209 363.609 555.192 369.098 555.803 369.824C556.929 371.163 559.728 373.988 559.732 376.02C559.74 379.731 553.572 371.77 551.057 369.041C548.447 366.208 540.224 358.295 543.523 360.281C549.447 363.847 553.668 373.624 556.788 379.438C561.76 388.704 555.667 386.157 551.793 380.367C550.56 378.524 549.953 375.695 552.645 377.682" stroke="#9A269C" stroke-opacity="0.2" stroke-width="3" stroke-linecap="round" shape-rendering="crispEdges"/>
</g>
<path d="M325.104 290.395C324.351 314.317 319.489 338.27 315.401 361.479C310.004 392.12 305.06 423.268 303.032 454.61C302.369 464.857 301.502 474.578 301.502 484.876C301.502 488.949 301.502 493.022 301.502 497.094C301.502 507.882 301.748 475.476 302.814 464.773C307.444 418.269 313.011 371.759 318.898 325.493C320.042 316.499 320.718 289.484 322.001 298.448C325.628 323.791 327.862 349.409 331.923 374.696C336.995 406.29 344.968 436.782 351.503 467.883C354.254 480.971 354.213 493.933 354.213 507.312C354.213 512.98 354.195 518.599 354.607 524.25C354.646 524.785 355 531.006 355 529.859C355 515.636 353.508 501.457 352.465 487.32C350.226 456.956 348.014 426.565 346.433 396.133C345.478 377.748 346.044 358.388 342.5 340.376C341.941 337.535 341.129 334.734 340.446 331.935C340.242 331.101 340.262 329.999 339.703 329.491C337.355 327.361 339.453 336.827 339.615 340.487C341.451 381.855 348.397 422.508 350.105 463.884C350.247 467.339 350.358 477.606 350.892 474.214C351.095 472.924 351.066 467.46 351.066 467.328C351.11 453.261 351.112 439.186 350.935 425.121C350.512 391.515 349.411 357.639 345.384 324.382C344.767 319.281 343.713 315.281 340.62 311.72C335.627 305.971 328.872 303.132 322.482 307.166C313.787 312.656 307.504 323.335 301.852 332.934C296.518 341.994 281.052 369.657 285.943 360.202C289.831 352.683 296.019 346.373 300.934 340.043C306.656 332.674 309.833 328.515 315.576 320.994C319.341 316.065 323.892 308.364 328.513 304.279C331.703 301.46 332.127 313.189 332.797 318.051C335.899 340.572 338.554 363.611 339.877 386.414C340.583 398.578 340.431 411.011 342.369 423.011C342.544 424.098 343.198 427.049 343.505 426.01C344.492 422.664 343.805 418.859 343.636 415.292C342.322 387.463 339.011 359.827 337.211 332.046C336.204 316.506 335.851 307.786 335.507 292.672C335.407 288.323 335.37 283.972 335.332 279.621C335.305 276.586 334.263 267.798 335.332 270.514C336.218 272.766 335.402 275.551 335.507 278.066C335.849 286.322 336.075 288.677 336.818 297.392C339.9 333.579 342.053 369.97 341.189 406.406C340.731 425.699 338.217 443.473 334.501 462.052C333.601 466.553 332.692 478.025 329.475 467.217C315.432 420.033 315.664 366.67 315.664 316.996C315.664 313.331 315.664 309.665 315.664 306C315.664 304.313 315.662 306.818 315.751 310.276C316.546 341.342 317.005 372.385 317.412 403.463C317.615 418.955 317.8 434.508 319.422 449.89C319.756 453.049 320.478 461.181 321.389 452.667C326.363 406.172 331.144 360.342 332.185 313.386" stroke="#BF1A1A" stroke-width="30" stroke-linecap="square"/>
<g style="mix-blend-mode:darken" filter="url(#filter6_d_2_79)">
<path d="M325.104 290.395C324.351 314.317 319.489 338.27 315.401 361.479C310.004 392.12 305.06 423.268 303.032 454.61C302.369 464.857 301.502 474.578 301.502 484.876C301.502 488.949 301.502 493.022 301.502 497.094C301.502 507.882 301.748 475.476 302.814 464.773C307.444 418.269 313.011 371.759 318.898 325.493C320.042 316.499 320.718 289.484 322.001 298.448C325.628 323.791 327.862 349.409 331.923 374.696C336.995 406.29 344.968 436.782 351.503 467.883C354.254 480.971 354.213 493.933 354.213 507.312C354.213 512.98 354.195 518.599 354.607 524.25C354.646 524.785 355 531.006 355 529.859C355 515.636 353.508 501.457 352.465 487.32C350.226 456.956 348.014 426.565 346.433 396.133C345.478 377.748 346.044 358.388 342.5 340.376C341.941 337.535 341.129 334.734 340.446 331.935C340.242 331.101 340.262 329.999 339.703 329.491C337.355 327.361 339.453 336.827 339.615 340.487C341.451 381.855 348.397 422.508 350.105 463.884C350.247 467.339 350.358 477.606 350.892 474.214C351.095 472.924 351.066 467.46 351.066 467.328C351.11 453.261 351.112 439.186 350.935 425.121C350.512 391.515 349.411 357.639 345.384 324.382C344.767 319.281 343.713 315.281 340.62 311.72C335.627 305.971 328.872 303.132 322.482 307.166C313.787 312.656 307.504 323.335 301.852 332.934C296.518 341.994 281.052 369.657 285.943 360.202C289.831 352.683 296.019 346.373 300.934 340.043C306.656 332.674 309.833 328.515 315.576 320.994C319.341 316.065 323.892 308.364 328.513 304.279C331.703 301.46 332.127 313.189 332.797 318.051C335.899 340.572 338.554 363.611 339.877 386.414C340.583 398.578 340.431 411.011 342.369 423.011C342.544 424.098 343.198 427.049 343.505 426.01C344.492 422.664 343.805 418.859 343.636 415.292C342.322 387.463 339.011 359.827 337.211 332.046C336.204 316.506 335.851 307.786 335.507 292.672C335.407 288.323 335.37 283.972 335.332 279.621C335.305 276.586 334.263 267.798 335.332 270.514C336.218 272.766 335.402 275.551 335.507 278.066C335.849 286.322 336.075 288.677 336.818 297.392C339.9 333.579 342.053 369.97 341.189 406.406C340.731 425.699 338.217 443.473 334.501 462.052C333.601 466.553 332.692 478.025 329.475 467.217C315.432 420.033 315.664 366.67 315.664 316.996C315.664 313.331 315.664 309.665 315.664 306C315.664 304.313 315.662 306.818 315.751 310.276C316.546 341.342 317.005 372.385 317.412 403.463C317.615 418.955 317.8 434.508 319.422 449.89C319.756 453.049 320.478 461.181 321.389 452.667C326.363 406.172 331.144 360.342 332.185 313.386" stroke="#9A269C" stroke-opacity="0.2" stroke-width="30" stroke-linecap="square" shape-rendering="crispEdges"/>
</g>
<defs>
<filter id="filter0_d_2_79" x="9" y="7" width="643" height="575" filterUnits="userSpaceOnUse" color-interpolation-filters="sRGB">
<feFlood flood-opacity="0" result="BackgroundImageFix"/>
<feColorMatrix in="SourceAlpha" type="matrix" values="0 0 0 0 0 0 0 0 0 0 0 0 0 0 0 0 0 0 127 0" result="hardAlpha"/>
<feOffset dx="-1" dy="-5"/>
<feGaussianBlur stdDeviation="2"/>
<feComposite in2="hardAlpha" operator="out"/>
<feColorMatrix type="matrix" values="0 0 0 0 0.737255 0 0 0 0 0.152941 0 0 0 0 0.713726 0 0 0 1 0"/>
<feBlend mode="normal" in2="BackgroundImageFix" result="effect1_dropShadow_2_79"/>
<feBlend mode="normal" in="SourceGraphic" in2="effect1_dropShadow_2_79" result="shape"/>
</filter>
<filter id="filter1_d_2_79" x="118.141" y="352.961" width="425.752" height="136.072" filterUnits="userSpaceOnUse" color-interpolation-filters="sRGB">
<feFlood flood-opacity="0" result="BackgroundImageFix"/>
<feColorMatrix in="SourceAlpha" type="matrix" values="0 0 0 0 0 0 0 0 0 0 0 0 0 0 0 0 0 0 127 0" result="hardAlpha"/>
<feOffset dy="4"/>
<feGaussianBlur stdDeviation="2"/>
<feComposite in2="hardAlpha" operator="out"/>
<feColorMatrix type="matrix" values="0 0 0 0 0.737255 0 0 0 0 0.152941 0 0 0 0 0.713726 0 0 0 1 0"/>
<feBlend mode="normal" in2="BackgroundImageFix" result="effect1_dropShadow_2_79"/>
<feBlend mode="normal" in="SourceGraphic" in2="effect1_dropShadow_2_79" result="shape"/>
</filter>
<filter id="filter2_d_2_79" x="179" y="108" width="68" height="148" filterUnits="userSpaceOnUse" color-interpolation-filters="sRGB">
<feFlood flood-opacity="0" result="BackgroundImageFix"/>
<feColorMatrix in="SourceAlpha" type="matrix" values="0 0 0 0 0 0 0 0 0 0 0 0 0 0 0 0 0 0 127 0" result="hardAlpha"/>
<feOffset dy="4"/>
<feGaussianBlur stdDeviation="2"/>
<feComposite in2="hardAlpha" operator="out"/>
<feColorMatrix type="matrix" values="0 0 0 0 0.737255 0 0 0 0 0.152941 0 0 0 0 0.713726 0 0 0 1 0"/>
<feBlend mode="normal" in2="BackgroundImageFix" result="effect1_dropShadow_2_79"/>
<feBlend mode="normal" in="SourceGraphic" in2="effect1_dropShadow_2_79" result="shape"/>
</filter>
<filter id="filter3_d_2_79" x="403" y="108" width="68" height="148" filterUnits="userSpaceOnUse" color-interpolation-filters="sRGB">
<feFlood flood-opacity="0" result="BackgroundImageFix"/>
<feColorMatrix in="SourceAlpha" type="matrix" values="0 0 0 0 0 0 0 0 0 0 0 0 0 0 0 0 0 0 127 0" result="hardAlpha"/>
<feOffset dy="4"/>
<feGaussianBlur stdDeviation="2"/>
<feComposite in2="hardAlpha" operator="out"/>
<feColorMatrix type="matrix" values="0 0 0 0 0.737255 0 0 0 0 0.152941 0 0 0 0 0.713726 0 0 0 1 0"/>
<feBlend mode="normal" in2="BackgroundImageFix" result="effect1_dropShadow_2_79"/>
<feBlend mode="normal" in="SourceGraphic" in2="effect1_dropShadow_2_79" result="shape"/>
</filter>
<filter id="filter4_d_2_79" x="98.6506" y="339.496" width="63.4759" height="57.3276" filterUnits="userSpaceOnUse" color-interpolation-filters="sRGB">
<feFlood flood-opacity="0" result="BackgroundImageFix"/>
<feColorMatrix in="SourceAlpha" type="matrix" values="0 0 0 0 0 0 0 0 0 0 0 0 0 0 0 0 0 0 127 0" result="hardAlpha"/>
<feOffset dy="4"/>
<feGaussianBlur stdDeviation="2"/>
<feComposite in2="hardAlpha" operator="out"/>
<feColorMatrix type="matrix" values="0 0 0 0 0.737255 0 0 0 0 0.152941 0 0 0 0 0.713726 0 0 0 1 0"/>
<feBlend mode="normal" in2="BackgroundImageFix" result="effect1_dropShadow_2_79"/>
<feBlend mode="normal" in="SourceGraphic" in2="effect1_dropShadow_2_79" result="shape"/>
</filter>
<filter id="filter5_d_2_79" x="510.012" y="329.502" width="55.2202" height="65.5617" filterUnits="userSpaceOnUse" color-interpolation-filters="sRGB">
<feFlood flood-opacity="0" result="BackgroundImageFix"/>
<feColorMatrix in="SourceAlpha" type="matrix" values="0 0 0 0 0 0 0 0 0 0 0 0 0 0 0 0 0 0 127 0" result="hardAlpha"/>
<feOffset dy="4"/>
<feGaussianBlur stdDeviation="2"/>
<feComposite in2="hardAlpha" operator="out"/>
<feColorMatrix type="matrix" values="0 0 0 0 0.737255 0 0 0 0 0.152941 0 0 0 0 0.713726 0 0 0 1 0"/>
<feBlend mode="normal" in2="BackgroundImageFix" result="effect1_dropShadow_2_79"/>
<feBlend mode="normal" in="SourceGraphic" in2="effect1_dropShadow_2_79" result="shape"/>
</filter>
<filter id="filter6_d_2_79" x="266" y="254.995" width="108" height="298.005" filterUnits="userSpaceOnUse" color-interpolation-filters="sRGB">
<feFlood flood-opacity="0" result="BackgroundImageFix"/>
<feColorMatrix in="SourceAlpha" type="matrix" values="0 0 0 0 0 0 0 0 0 0 0 0 0 0 0 0 0 0 127 0" result="hardAlpha"/>
<feOffset dy="4"/>
<feGaussianBlur stdDeviation="2"/>
<feComposite in2="hardAlpha" operator="out"/>
<feColorMatrix type="matrix" values="0 0 0 0 0.737255 0 0 0 0 0.152941 0 0 0 0 0.713726 0 0 0 1 0"/>
<feBlend mode="normal" in2="BackgroundImageFix" result="effect1_dropShadow_2_79"/>
<feBlend mode="normal" in="SourceGraphic" in2="effect1_dropShadow_2_79" result="shape"/>
</filter>
</defs>
</svg>
